<?xml version="1.0" encoding="UTF-8" standalone="no"?>
<svg
   data-name="Layer 1"
   viewBox="0 0 299.51541 297.51483"
   x="0px"
   fill="#0D0E13"
   y="0px"
   version="1.1"
   id="svg2"
   sodipodi:docname="trop.svg"
   inkscape:version="1.3 (0e150ed6c4, 2023-07-21)"
   width="299.51541"
   height="297.51483"
   inkscape:export-filename="trop.svg"
   inkscape:export-xdpi="96.155319"
   inkscape:export-ydpi="96.155319"
   xmlns:inkscape="http://www.inkscape.org/namespaces/inkscape"
   xmlns:sodipodi="http://sodipodi.sourceforge.net/DTD/sodipodi-0.dtd"
   xmlns="http://www.w3.org/2000/svg"
   xmlns:svg="http://www.w3.org/2000/svg"
   xmlns:rdf="http://www.w3.org/1999/02/22-rdf-syntax-ns#"
   xmlns:cc="http://creativecommons.org/ns#"
   xmlns:dc="http://purl.org/dc/elements/1.1/">
  <defs
     id="defs2" />
  <sodipodi:namedview
     id="namedview2"
     borderopacity="0.25"
     inkscape:showpageshadow="2"
     inkscape:pageopacity="0.0"
     inkscape:pagecheckerboard="0"
     inkscape:deskcolor="#d1d1d1"
     inkscape:zoom="2.4720453"
     inkscape:cx="61.892069"
     inkscape:cy="118.7276"
     inkscape:window-width="1876"
     inkscape:window-height="969"
     inkscape:window-x="0"
     inkscape:window-y="0"
     inkscape:window-maximized="1"
     inkscape:current-layer="svg2"
     pagecolor="#ffffff"
     bordercolor="#000000" />
  <title
     id="title1">All3</title>
  <path
     d="m 258.31924,162.46738 -10.96985,9.58005 9.92749,9.9275 c -24.50435,21.19519 -61.21955,29.84864 -81.33929,17.60474 a 2.5271275,2.5271275 0 0 1 0.77767,-0.77766 c 28.19409,-10.2915 51.29204,-28.12791 72.70235,-48.54545 2.87899,-2.87896 3.67318,-4.93065 1.17475,-8.5211 -4.45082,-6.33703 -8.17363,-13.17047 -12.60791,-19.49099 A 258.37538,258.37538 0 0 0 155.45387,46.66315 c -3.24299,-1.886209 -5.54285,-2.465314 -8.09089,0.777656 -11.44974,14.758879 -23.71018,28.938649 -34.44842,44.177356 -6.45289,9.166388 -10.67205,19.904598 -15.85092,29.815598 -11.38349,-20.51683 -0.876897,-67.126431 18.81262,-81.057998 l 9.56349,9.563461 9.72894,-10.688599 L 114.1555,18.237429 C 105.9322,24.673746 93.191944,42.146144 86.408155,57.765404 73.717518,86.637886 72.162208,115.0305 91.884811,142.26494 a 6.341218,6.341218 0 0 1 1.191313,3.77244 62.920796,62.920796 0 0 0 8.339076,36.26844 c -6.965772,6.96582 -13.666839,13.89852 -20.731917,20.46719 -0.959659,0.95966 -3.855174,0.54602 -5.493219,-0.066 -7.329803,-2.86241 -14.543771,-6.20469 -21.8074,-9.1995 a 6.060426,6.060426 0 0 0 -5.013383,-0.016 c -4.566661,4.335 -9.050562,8.78584 -13.484843,13.2201 a 13.384415,13.384415 0 0 0 -17.158019,20.46733 l 52.61574,52.61572 A 13.384415,13.384415 0 0 0 90.610777,262.3719 q 1.075478,-1.0755 2.167521,-2.16753 C 106.32932,246.6534 106.62714,244.2708 97.626232,226.86459 a 15.513755,15.513755 0 0 0 -2.101351,-3.59047 c -2.9948,-3.16024 -1.687652,-5.39394 0.976209,-7.89234 5.29467,-4.99684 10.55626,-10.09296 15.47037,-15.47034 2.79623,-3.09406 5.01339,-3.02789 8.65345,-1.27402 a 35.098992,35.098992 0 0 0 14.04739,4.51699 c 13.00503,0.23159 24.17348,4.31845 35.54047,10.52315 12.47551,6.91615 26.65529,7.56144 40.70272,5.6256 27.03586,-3.87172 48.85981,-17.58823 68.78097,-35.68935 l -21.2614,-21.26141 z"
     id="path1-3"
     style="stroke:#ffffff;stroke-width:27.3578;stroke-dasharray:none;stroke-opacity:1" />
  <path
     d="m 261.53164,160.28115 -10.96984,9.58005 9.92748,9.92752 C 235.98491,200.9839 199.2697,209.63736 179.15,197.39345 a 2.5271275,2.5271275 0 0 1 0.77764,-0.77765 c 28.1941,-10.2915 51.29206,-28.1279 72.70236,-48.54546 2.87898,-2.87895 3.67319,-4.93065 1.17476,-8.5211 -4.45083,-6.33704 -8.17362,-13.17046 -12.60794,-19.49098 A 258.37538,258.37538 0 0 0 158.66627,44.476932 c -3.24298,-1.886212 -5.54286,-2.465315 -8.09089,0.777655 -11.44976,14.758879 -23.71021,28.938644 -34.44842,44.177351 -6.45286,9.166404 -10.67204,19.904632 -15.85091,29.815592 C 88.892519,98.730715 99.399113,52.121112 119.08867,38.189543 l 9.56347,9.563461 9.72895,-10.688599 -21.0132,-21.013163 C 109.14461,22.48756 96.404313,39.959927 89.620552,55.579183 76.929887,84.451663 75.374605,112.84429 95.097207,140.07872 a 6.341218,6.341218 0 0 1 1.191314,3.77246 62.920796,62.920796 0 0 0 8.339089,36.26842 c -6.965813,6.96581 -13.666852,13.89851 -20.731931,20.4672 -0.959658,0.95966 -3.855174,0.546 -5.493203,-0.066 -7.329805,-2.86244 -14.543787,-6.20472 -21.807408,-9.19953 a 6.060426,6.060426 0 0 0 -5.013354,-0.016 c -4.566659,4.33503 -9.050562,8.78586 -13.484842,13.22013 a 13.384415,13.384415 0 0 0 -17.158019,20.46732 l 52.615676,52.6157 a 13.384415,13.384415 0 0 0 20.268644,-17.4227 q 1.075494,-1.07547 2.167523,-2.16753 c 13.551024,-13.55095 13.848844,-15.93355 4.847904,-33.33977 a 15.513755,15.513755 0 0 0 -2.101312,-3.59045 c -2.994795,-3.16025 -1.687662,-5.39393 0.976202,-7.89236 5.29466,-4.99684 10.55625,-10.09295 15.47036,-15.47032 2.79624,-3.09407 5.01338,-3.0279 8.65346,-1.27405 a 35.098992,35.098992 0 0 0 14.04739,4.51702 c 13.00503,0.23158 24.17345,4.31846 35.54046,10.52314 12.47553,6.91614 26.65531,7.56146 40.70271,5.6256 27.03587,-3.87173 48.85982,-17.58823 68.781,-35.68935 l -21.2614,-21.26143 z"
     id="path1"
     style="stroke-width:2.33994" />
  <metadata
     id="metadata1">
    <rdf:RDF>
      <cc:Work
         rdf:about="">
        <dc:title>All3</dc:title>
      </cc:Work>
    </rdf:RDF>
  </metadata>
</svg>
